<?xml version="1.0" encoding="UTF-8" standalone="no"?><svg xmlns="http://www.w3.org/2000/svg" xmlns:xlink="http://www.w3.org/1999/xlink" data-name="Layer 1" fill="#ffffff" height="1509.9" preserveAspectRatio="xMidYMid meet" version="1" viewBox="441.8 745.1 2116.8 1509.9" width="2116.8" zoomAndPan="magnify"><g id="change1_1"><path d="M1500.24,1643.19a202.8,202.8,0,0,0-203,203c0,112.22,90.74,203.92,203,203.92s203-91.7,203-203.92A202.82,202.82,0,0,0,1500.24,1643.19Z" fill-rule="evenodd"/></g><g id="change1_2"><path d="M1725.64,1287c-44.89,78-42,77.06-100.5,75.13-40-1-83-2-124.9-2-42.93,0-84.9,1-124.9,2-59.53,1.93-56.61,2.92-101.5-75.13-51.7-88.81-214.65-94.66-214.65,34.13,0,229.32-280.05,273.22-280.05,773.79,0,113.18,53.66,160,164.91,160H2055.43c112.22,0,165.88-46.85,165.88-160,0-500.57-281-544.47-281-773.79C1940.29,1192.38,1777.34,1198.23,1725.64,1287Zm-225.4,879.17c-176.63,0-319.1-143.46-319.1-320.06,0-175.64,142.47-319.1,319.1-319.1s319.06,143.46,319.06,319.1C1819.3,2022.75,1676.84,2166.21,1500.24,2166.21Z" fill-rule="evenodd"/></g><g id="change1_3"><path d="M2103.85,823.06c-166.51-52-385.07-78-603.62-78s-437.11,26-604.66,78c-358,112.4-453.76,300.77-352.81,626.52,32.26,103,444.39,10.41,421.5-160.27-19.78-137.38-46.84-190.45,125.92-236.25,111.36-29.14,260.19-43.71,410.05-43.71,148.82,0,298.69,14.57,410.05,43.71,171.72,45.8,144.66,98.87,125.93,236.25-23.94,170.68,389.23,263.3,420.45,160.27C2558.65,1123.83,2462.91,935.46,2103.85,823.06Z" fill-rule="evenodd"/></g></svg>