<?xml version="1.0" encoding="UTF-8" standalone="no"?><svg xmlns="http://www.w3.org/2000/svg" xmlns:xlink="http://www.w3.org/1999/xlink" data-name="Layer 1" fill="#ffffff" height="804" preserveAspectRatio="xMidYMid meet" version="1" viewBox="98.0 98.0 804.0 804.0" width="804" zoomAndPan="magnify"><g id="change1_1"><path d="M500,98C278.3,98,98,278.3,98,500S278.3,902,500,902,902,721.7,902,500,721.7,98,500,98Zm0,775.8c-206.4,0-373.8-167.4-373.8-373.8S293.6,126.2,500,126.2,873.8,293.6,873.8,500,706.4,873.8,500,873.8Z"/></g><g id="change1_2"><path d="M724.1,502.2a17.3,17.3,0,0,1-11.3-4.1L500,319.6,287.2,498.1a17.6,17.6,0,1,1-22.7-27l224.2-188a17.5,17.5,0,0,1,22.6,0l224.2,188a17.6,17.6,0,0,1-11.4,31.1Z"/></g><g id="change1_3"><path d="M673.5,519.7,509,381.7a14.2,14.2,0,0,0-18,0l-164.5,138a14,14,0,0,0-5,10.7V707.1A13.9,13.9,0,0,0,335.4,721h119V616.9a17.5,17.5,0,0,1,17.5-17.5h56.2a17.5,17.5,0,0,1,17.5,17.5V721h119a13.9,13.9,0,0,0,13.9-13.9V530.4A14,14,0,0,0,673.5,519.7Zm-127.9,47a14,14,0,0,1-14,13.9H468.4a14,14,0,0,1-14-13.9V503.4a14,14,0,0,1,14-13.9h63.2a14,14,0,0,1,14,13.9Z"/></g></svg>