<?xml version="1.0" encoding="UTF-8" standalone="no"?><svg xmlns="http://www.w3.org/2000/svg" xmlns:xlink="http://www.w3.org/1999/xlink" fill="#ffffff" height="494.7" preserveAspectRatio="xMidYMid meet" version="1" viewBox="120.2 2.6 259.9 494.7" width="259.9" zoomAndPan="magnify"><g id="change1_1"><path clip-rule="evenodd" d="M259.2,17.1c2.8-0.5,5-3,5-6c0-3.4-2.8-6.2-6.2-6.2c-3.4,0-6.2,2.8-6.2,6.2 c0,3,2.2,5.5,5,6v-6c0-0.6,0.5-1.1,1.1-1.1c0.6,0,1.1,0.5,1.1,1.1V17.1z M262.1,102.9L262.1,102.9c0.4,0.4,1.2,0.4,1.6,0 c0.4-0.4,0.4-1.2,0-1.6c-0.4-0.4-1.2-0.4-1.6,0C261.6,101.7,261.6,102.4,262.1,102.9z M266.9,107.7L266.9,107.7 c0.4,0.4,1.2,0.4,1.6,0c0.4-0.4,0.4-1.2,0-1.6h0c-0.4-0.4-1.2-0.4-1.6,0C266.5,106.6,266.5,107.3,266.9,107.7z M271.8,112.6 L271.8,112.6c0.4,0.4,1.2,0.4,1.6,0c0.4-0.4,0.4-1.2,0-1.6c-0.4-0.4-1.2-0.4-1.6,0C271.4,111.4,271.4,112.2,271.8,112.6z M276.7,117.5L276.7,117.5c0.4,0.4,1.2,0.4,1.6,0c0.4-0.4,0.4-1.2,0-1.6c-0.4-0.4-1.2-0.4-1.6,0C276.2,116.3,276.2,117,276.7,117.5 z M281.6,122.4L281.6,122.4c0.4,0.4,1.2,0.4,1.6,0c0.4-0.4,0.4-1.2,0-1.6c-0.4-0.4-1.2-0.4-1.6,0 C281.1,121.2,281.1,121.9,281.6,122.4z M286.4,127.2L286.4,127.2c0.4,0.4,1.2,0.4,1.6,0c0.4-0.4,0.4-1.2,0-1.6 c-0.4-0.4-1.2-0.4-1.6,0C286,126.1,286,126.8,286.4,127.2z M291.3,132.1L291.3,132.1c0.4,0.4,1.2,0.4,1.6,0c0.4-0.4,0.4-1.2,0-1.6 h0c-0.4-0.4-1.2-0.4-1.6,0S290.9,131.7,291.3,132.1z M296.2,137L296.2,137c0.4,0.4,1.2,0.4,1.6,0c0.4-0.4,0.4-1.2,0-1.6 c-0.4-0.4-1.2-0.4-1.6,0C295.7,135.8,295.7,136.5,296.2,137z M301.1,141.9L301.1,141.9c0.4,0.4,1.2,0.4,1.6,0 c0.4-0.4,0.4-1.2,0-1.6c-0.4-0.4-1.2-0.4-1.6,0C300.6,140.7,300.6,141.4,301.1,141.9z M305.9,146.7L305.9,146.7 c0.4,0.4,1.2,0.4,1.6,0c0.4-0.4,0.4-1.2,0-1.6s-1.2-0.4-1.6,0S305.5,146.3,305.9,146.7z M310.8,151.6L310.8,151.6 c0.4,0.4,1.2,0.4,1.6,0c0.4-0.4,0.4-1.2,0-1.6c-0.4-0.4-1.2-0.4-1.6,0C310.4,150.4,310.4,151.2,310.8,151.6z M315.7,156.5 L315.7,156.5c0.4,0.4,1.2,0.4,1.6,0c0.4-0.4,0.4-1.2,0-1.6c0,0,0,0,0,0c-0.4-0.4-1.2-0.4-1.6,0C315.2,155.3,315.2,156,315.7,156.5z M320.6,161.4L320.6,161.4c0.4,0.4,1.2,0.4,1.6,0c0.4-0.4,0.4-1.2,0-1.6c-0.4-0.4-1.2-0.4-1.6,0 C320.1,160.2,320.1,160.9,320.6,161.4z M325.4,166.2L325.4,166.2c0.4,0.4,1.2,0.4,1.6,0c0.4-0.4,0.4-1.2,0-1.6 c-0.4-0.4-1.2-0.4-1.6,0S325,165.8,325.4,166.2z M208.7,161V12.5c0-0.7,0.6-1.3,1.3-1.3s1.3,0.6,1.3,1.3V161c1.5,0.5,2.6,2,2.6,3.7 c0,2.2-1.8,4-4,4c-2.2,0-4-1.8-4-4C206.1,163,207.2,161.5,208.7,161z M330.3,171.1L330.3,171.1c0.4,0.4,1.2,0.4,1.6,0 c0.4-0.4,0.4-1.2,0-1.6c-0.4-0.4-1.2-0.4-1.6,0C329.9,169.9,329.9,170.7,330.3,171.1z M335.2,176L335.2,176c0.4,0.4,1.2,0.4,1.6,0 c0.4-0.4,0.4-1.2,0-1.6c-0.4-0.4-1.2-0.4-1.6,0C334.7,174.8,334.7,175.5,335.2,176z M247.7,174.4c0-3.2-2.6-5.7-5.7-5.7 s-5.7,2.6-5.7,5.7c0,3.2,2.6,5.7,5.7,5.7S247.7,177.6,247.7,174.4z M340.1,180.8L340.1,180.8c0.4,0.4,1.2,0.4,1.6,0 c0.4-0.4,0.4-1.2,0-1.6c-0.4-0.4-1.2-0.4-1.6,0C339.6,179.7,339.6,180.4,340.1,180.8z M240.8,184.8L240.8,184.8 c0,0.6,0.5,1.1,1.1,1.1c0.6,0,1.1-0.5,1.1-1.1v0c0-0.6-0.5-1.1-1.1-1.1C241.4,183.6,240.8,184.1,240.8,184.8z M340.4,184.1 L340.4,184.1c-0.4,0.4-0.4,1.2,0,1.6c0.4,0.4,1.2,0.4,1.6,0c0.4-0.4,0.4-1.2,0-1.6C341.5,183.7,340.8,183.7,340.4,184.1z M335.5,189L335.5,189c-0.4,0.4-0.4,1.2,0,1.6c0.4,0.4,1.2,0.4,1.6,0c0.4-0.4,0.4-1.2,0-1.6C336.7,188.5,335.9,188.5,335.5,189z M240.8,191.7L240.8,191.7c0,0.6,0.5,1.1,1.1,1.1c0.6,0,1.1-0.5,1.1-1.1c0-0.6-0.5-1.1-1.1-1.1C241.4,190.5,240.8,191,240.8,191.7z M330.6,193.8L330.6,193.8c-0.4,0.4-0.4,1.2,0,1.6c0.4,0.4,1.2,0.4,1.6,0c0.4-0.4,0.4-1.2,0-1.6C331.8,193.4,331,193.4,330.6,193.8 z M325.7,198.7C325.7,198.7,325.7,198.7,325.7,198.7c-0.4,0.4-0.4,1.2,0,1.6c0.4,0.4,1.2,0.4,1.6,0c0.4-0.4,0.4-1.2,0-1.6 C326.9,198.3,326.2,198.3,325.7,198.7z M320.9,203.6L320.9,203.6c-0.4,0.4-0.4,1.2,0,1.6c0.4,0.4,1.2,0.4,1.6,0 c0.4-0.4,0.4-1.2,0-1.6C322,203.1,321.3,203.1,320.9,203.6z M240.8,205.4L240.8,205.4c0,0.6,0.5,1.1,1.1,1.1c0.6,0,1.1-0.5,1.1-1.1 c0-0.6-0.5-1.1-1.1-1.1C241.4,204.3,240.8,204.8,240.8,205.4z M351.4,157.1v51l25.5-25.5L351.4,157.1z M316,208.5L316,208.5 c-0.4,0.4-0.4,1.2,0,1.6c0.4,0.4,1.2,0.4,1.6,0v0c0.4-0.4,0.4-1.2,0-1.6C317.2,208,316.4,208,316,208.5z M240.8,212.3L240.8,212.3 c0,0.6,0.5,1.1,1.1,1.1c0.6,0,1.1-0.5,1.1-1.1c0-0.6-0.5-1.1-1.1-1.1C241.4,211.2,240.8,211.7,240.8,212.3z M311.1,213.3 L311.1,213.3c-0.4,0.4-0.4,1.2,0,1.6c0.4,0.4,1.2,0.4,1.6,0c0,0,0,0,0,0c0.4-0.4,0.4-1.2,0-1.6 C312.3,212.9,311.6,212.9,311.1,213.3z M306.2,218.2L306.2,218.2c-0.4,0.4-0.4,1.2,0,1.6c0.4,0.4,1.2,0.4,1.6,0s0.4-1.2,0-1.6 C307.4,217.8,306.7,217.8,306.2,218.2z M240.8,219.2L240.8,219.2c0,0.6,0.5,1.1,1.1,1.1c0.6,0,1.1-0.5,1.1-1.1 c0-0.6-0.5-1.1-1.1-1.1C241.4,218.1,240.8,218.6,240.8,219.2z M301.4,223.1C301.4,223.1,301.4,223.1,301.4,223.1 c-0.4,0.4-0.4,1.2,0,1.6c0.4,0.4,1.2,0.4,1.6,0c0.4-0.4,0.4-1.2,0-1.6C302.5,222.6,301.8,222.6,301.4,223.1z M240.8,226.1 L240.8,226.1c0,0.6,0.5,1.1,1.1,1.1c0.6,0,1.1-0.5,1.1-1.1v0c0-0.6-0.5-1.1-1.1-1.1C241.4,225,240.8,225.5,240.8,226.1z M296.5,228 L296.5,228c-0.4,0.4-0.4,1.2,0,1.6c0.4,0.4,1.2,0.4,1.6,0c0.4-0.4,0.4-1.2,0-1.6C297.7,227.5,296.9,227.5,296.5,228z M177.4,97.8 c-0.8-0.3-1.4-1.1-1.4-2c0-1.1,0.9-2.1,2.1-2.1c1.1,0,2.1,0.9,2.1,2.1c0,0.9-0.6,1.7-1.4,2v131.4c0.8,0.3,1.4,1.1,1.4,2 c0,1.1-0.9,2.1-2.1,2.1c-1.1,0-2.1-0.9-2.1-2.1c0-0.9,0.6-1.7,1.4-2V97.8z M240.8,233L240.8,233c0,0.6,0.5,1.1,1.1,1.1 c0.6,0,1.1-0.5,1.1-1.1c0-0.6-0.5-1.1-1.1-1.1C241.4,231.9,240.8,232.4,240.8,233z M291.6,232.8L291.6,232.8 c-0.4,0.4-0.4,1.2,0,1.6c0.4,0.4,1.2,0.4,1.6,0c0.4-0.4,0.4-1.2,0-1.6C292.8,232.4,292.1,232.4,291.6,232.8z M286.7,237.7 L286.7,237.7c-0.4,0.4-0.4,1.2,0,1.6c0.4,0.4,1.2,0.4,1.6,0c0,0,0,0,0,0c0.4-0.4,0.4-1.2,0-1.6 C287.9,237.3,287.2,237.3,286.7,237.7z M240.8,239.9L240.8,239.9c0,0.6,0.5,1.1,1.1,1.1c0.6,0,1.1-0.5,1.1-1.1 c0-0.6-0.5-1.1-1.1-1.1C241.4,238.8,240.8,239.3,240.8,239.9z M281.9,242.6L281.9,242.6c-0.4,0.4-0.4,1.2,0,1.6 c0.4,0.4,1.2,0.4,1.6,0c0.4-0.4,0.4-1.2,0-1.6C283,242.1,282.3,242.1,281.9,242.6z M240.8,246.8L240.8,246.8c0,0.6,0.5,1.1,1.1,1.1 c0.6,0,1.1-0.5,1.1-1.1c0-0.6-0.5-1.1-1.1-1.1C241.4,245.7,240.8,246.2,240.8,246.8z M277,247.5L277,247.5c-0.4,0.4-0.4,1.2,0,1.6 c0.4,0.4,1.2,0.4,1.6,0c0.4-0.4,0.4-1.2,0-1.6C278.2,247,277.4,247,277,247.5z M272.1,252.3L272.1,252.3c-0.4,0.4-0.4,1.2,0,1.6 c0.4,0.4,1.2,0.4,1.6,0c0.4-0.4,0.4-1.2,0-1.6C273.3,251.9,272.6,251.9,272.1,252.3z M240.8,253.7L240.8,253.7 c0,0.6,0.5,1.1,1.1,1.1c0.6,0,1.1-0.5,1.1-1.1v0c0-0.6-0.5-1.1-1.1-1.1C241.4,252.6,240.8,253.1,240.8,253.7z M267.2,257.2 L267.2,257.2c-0.4,0.4-0.4,1.2,0,1.6c0.4,0.4,1.2,0.4,1.6,0v0c0.4-0.4,0.4-1.2,0-1.6C268.4,256.8,267.7,256.8,267.2,257.2z M240.8,260.6L240.8,260.6c0,0.6,0.5,1.1,1.1,1.1c0.6,0,1.1-0.5,1.1-1.1c0-0.6-0.5-1.1-1.1-1.1C241.4,259.4,240.8,260,240.8,260.6z M262.4,262.1L262.4,262.1c-0.4,0.4-0.4,1.2,0,1.6c0.4,0.4,1.2,0.4,1.6,0c0,0,0,0,0,0c0.4-0.4,0.4-1.2,0-1.6 C263.5,261.6,262.8,261.6,262.4,262.1z M240.8,267.5L240.8,267.5c0,0.6,0.5,1.1,1.1,1.1c0.6,0,1.1-0.5,1.1-1.1 c0-0.6-0.5-1.1-1.1-1.1C241.4,266.3,240.8,266.9,240.8,267.5z M240.8,274.4L240.8,274.4c0,0.6,0.5,1.1,1.1,1.1 c0.6,0,1.1-0.5,1.1-1.1c0-0.6-0.5-1.1-1.1-1.1C241.4,273.2,240.8,273.7,240.8,274.4z M240.8,281.3L240.8,281.3 c0,0.6,0.5,1.1,1.1,1.1c0.6,0,1.1-0.5,1.1-1.1c0-0.6-0.5-1.1-1.1-1.1C241.4,280.1,240.8,280.6,240.8,281.3z M240.8,288.2 L240.8,288.2c0,0.6,0.5,1.1,1.1,1.1c0.6,0,1.1-0.5,1.1-1.1c0-0.6-0.5-1.1-1.1-1.1C241.4,287,240.8,287.5,240.8,288.2z M307.6,295.5 L307.6,295.5z M240.8,295.1L240.8,295.1c0,0.6,0.5,1.1,1.1,1.1c0.6,0,1.1-0.5,1.1-1.1c0-0.6-0.5-1.1-1.1-1.1 C241.4,293.9,240.8,294.4,240.8,295.1z M307.5,295.4L307.5,295.4c0,0.4,0.2,0.7,0.4,0.9l0.1,0.1l-0.1-0.1 C307.7,296.1,307.6,295.8,307.5,295.4L307.5,295.4c0,0.5,0.2,0.8,0.4,1c0.2,0.2,0.5,0.3,0.9,0.3c0.7,0,1.3-0.6,1.3-1.3 c0-1.2-1.3,1.3-1.3,1.3C308.1,294.1,307.5,294.7,307.5,295.4z M259.2,268.5v31.9l89.6-89.6v-56.3l-89.6-89.6V267 C259.5,267.5,259.5,268.1,259.2,268.5z M240.8,302L240.8,302c0,0.6,0.5,1.1,1.1,1.1c0.6,0,1.1-0.5,1.1-1.1v0c0-0.6-0.5-1.1-1.1-1.1 C241.4,300.8,240.8,301.3,240.8,302z M307.5,303.3L307.5,303.3c0,0.7,0.6,1.3,1.3,1.3c0.7,0,1.3-0.6,1.3-1.3v0 c0-0.7-0.6-1.3-1.3-1.3C308.1,302,307.5,302.6,307.5,303.3z M240.8,308.9L240.8,308.9c0,0.6,0.5,1.1,1.1,1.1c0.6,0,1.1-0.5,1.1-1.1 c0-0.6-0.5-1.1-1.1-1.1C241.4,307.7,240.8,308.2,240.8,308.9z M307.5,311.3L307.5,311.3c0,0.7,0.6,1.3,1.3,1.3 c0.7,0,1.3-0.6,1.3-1.3c0-0.7-0.6-1.3-1.3-1.3C308.1,310,307.5,310.5,307.5,311.3z M240.8,315.7L240.8,315.7c0,0.6,0.5,1.1,1.1,1.1 c0.6,0,1.1-0.5,1.1-1.1c0-0.6-0.5-1.1-1.1-1.1C241.4,314.6,240.8,315.1,240.8,315.7z M307.5,319.2L307.5,319.2 c0,0.7,0.6,1.3,1.3,1.3c0.7,0,1.3-0.6,1.3-1.3s-0.6-1.3-1.3-1.3C308.1,317.9,307.5,318.5,307.5,319.2z M240.8,322.6L240.8,322.6 c0,0.6,0.5,1.1,1.1,1.1c0.6,0,1.1-0.5,1.1-1.1c0-0.6-0.5-1.1-1.1-1.1C241.4,321.5,240.8,322,240.8,322.6z M307.5,327.1L307.5,327.1 c0,0.7,0.6,1.3,1.3,1.3c0.7,0,1.3-0.6,1.3-1.3v0c0-0.7-0.6-1.3-1.3-1.3C308.1,325.8,307.5,326.4,307.5,327.1z M240.8,329.5 L240.8,329.5c0,0.6,0.5,1.1,1.1,1.1c0.6,0,1.1-0.5,1.1-1.1c0-0.6-0.5-1.1-1.1-1.1C241.4,328.4,240.8,328.9,240.8,329.5z M307.5,335.1L307.5,335.1c0,0.7,0.6,1.3,1.3,1.3c0.7,0,1.3-0.6,1.3-1.3s-0.6-1.3-1.3-1.3C308.1,333.7,307.5,334.3,307.5,335.1z M240.8,336.4L240.8,336.4c0,0.6,0.5,1.1,1.1,1.1c0.6,0,1.1-0.5,1.1-1.1c0-0.6-0.5-1.1-1.1-1.1 C241.4,335.3,240.8,335.8,240.8,336.4z M307.5,343L307.5,343c0,0.7,0.6,1.3,1.3,1.3c0.7,0,1.3-0.6,1.3-1.3c0-0.7-0.6-1.3-1.3-1.3 C308.1,341.7,307.5,342.3,307.5,343z M240.8,343.3L240.8,343.3c0,0.6,0.5,1.1,1.1,1.1c0.6,0,1.1-0.5,1.1-1.1v0 c0-0.6-0.5-1.1-1.1-1.1C241.4,342.2,240.8,342.7,240.8,343.3z M240.8,350.2L240.8,350.2c0,0.6,0.5,1.1,1.1,1.1 c0.6,0,1.1-0.5,1.1-1.1c0-0.6-0.5-1.1-1.1-1.1C241.4,349.1,240.8,349.6,240.8,350.2z M307.5,350.9L307.5,350.9 c0,0.7,0.6,1.3,1.3,1.3c0.7,0,1.3-0.6,1.3-1.3v0c0-0.7-0.6-1.3-1.3-1.3C308.1,349.6,307.5,350.2,307.5,350.9z M240.8,357.1 L240.8,357.1c0,0.6,0.5,1.1,1.1,1.1c0.6,0,1.1-0.5,1.1-1.1v0c0-0.6-0.5-1.1-1.1-1.1C241.4,356,240.8,356.5,240.8,357.1z M307.5,358.8L307.5,358.8c0,0.7,0.6,1.3,1.3,1.3c0.7,0,1.3-0.6,1.3-1.3c0-0.7-0.6-1.3-1.3-1.3 C308.1,357.5,307.5,358.1,307.5,358.8z M240.8,364L240.8,364c0,0.6,0.5,1.1,1.1,1.1c0.6,0,1.1-0.5,1.1-1.1v0c0-0.6-0.5-1.1-1.1-1.1 C241.4,362.9,240.8,363.4,240.8,364z M307.5,366.8L307.5,366.8c0,0.7,0.6,1.3,1.3,1.3c0.7,0,1.3-0.6,1.3-1.3c0-0.7-0.6-1.3-1.3-1.3 C308.1,365.4,307.5,366,307.5,366.8z M240.8,370.9L240.8,370.9c0,0.6,0.5,1.1,1.1,1.1c0.6,0,1.1-0.5,1.1-1.1v0 c0-0.6-0.5-1.1-1.1-1.1C241.4,369.7,240.8,370.3,240.8,370.9z M307.5,374.7L307.5,374.7c0,0.7,0.6,1.3,1.3,1.3 c0.7,0,1.3-0.6,1.3-1.3c0-0.7-0.6-1.3-1.3-1.3C308.1,373.4,307.5,374,307.5,374.7z M240.8,377.8L240.8,377.8c0,0.6,0.5,1.1,1.1,1.1 c0.6,0,1.1-0.5,1.1-1.1v0c0-0.6-0.5-1.1-1.1-1.1C241.4,376.6,240.8,377.2,240.8,377.8z M307.5,382.6L307.5,382.6 c0,0.7,0.6,1.3,1.3,1.3c0.7,0,1.3-0.6,1.3-1.3c0-0.7-0.6-1.3-1.3-1.3C308.1,381.3,307.5,381.9,307.5,382.6z M240.8,384.7 L240.8,384.7c0,0.6,0.5,1.1,1.1,1.1c0.6,0,1.1-0.5,1.1-1.1v0c0-0.6-0.5-1.1-1.1-1.1C241.4,383.5,240.8,384.1,240.8,384.7z M307.5,390.6L307.5,390.6c0,0.7,0.6,1.3,1.3,1.3c0.7,0,1.3-0.6,1.3-1.3c0-0.7-0.6-1.3-1.3-1.3 C308.1,389.2,307.5,389.8,307.5,390.6z M240.8,391.6L240.8,391.6c0,0.6,0.5,1.1,1.1,1.1c0.6,0,1.1-0.5,1.1-1.1 c0-0.6-0.5-1.1-1.1-1.1C241.4,390.4,240.8,390.9,240.8,391.6z M240.8,398.5L240.8,398.5c0,0.6,0.5,1.1,1.1,1.1 c0.6,0,1.1-0.5,1.1-1.1c0-0.6-0.5-1.1-1.1-1.1C241.4,397.3,240.8,397.8,240.8,398.5z M307.5,398.5L307.5,398.5 c0,0.7,0.6,1.3,1.3,1.3c0.7,0,1.3-0.6,1.3-1.3c0-0.7-0.6-1.3-1.3-1.3C308.1,397.2,307.5,397.7,307.5,398.5z M236.1,401.5 l-84.1-84.1l84.1-84.1V401.5z M240.8,405.4L240.8,405.4c0,0.6,0.5,1.1,1.1,1.1c0.6,0,1.1-0.5,1.1-1.1c0-0.6-0.5-1.1-1.1-1.1 C241.4,404.2,240.8,404.7,240.8,405.4z M307.5,406.4L307.5,406.4c0,0.7,0.6,1.3,1.3,1.3c0.7,0,1.3-0.6,1.3-1.3 c0-0.7-0.6-1.3-1.3-1.3C308.1,405.1,307.5,405.7,307.5,406.4z M240.8,412.3L240.8,412.3c0,0.6,0.5,1.1,1.1,1.1 c0.6,0,1.1-0.5,1.1-1.1c0-0.6-0.5-1.1-1.1-1.1C241.4,411.1,240.8,411.6,240.8,412.3z M307.5,414.3L307.5,414.3 c0,0.7,0.6,1.3,1.3,1.3c0.7,0,1.3-0.6,1.3-1.3c0-0.7-0.6-1.3-1.3-1.3C308.1,413,307.5,413.6,307.5,414.3z M240.8,419.2L240.8,419.2 c0,0.6,0.5,1.1,1.1,1.1c0.6,0,1.1-0.5,1.1-1.1c0-0.6-0.5-1.1-1.1-1.1C241.4,418,240.8,418.5,240.8,419.2z M307.5,422.3L307.5,422.3 c0,0.7,0.6,1.3,1.3,1.3c0.7,0,1.3-0.6,1.3-1.3c0-0.7-0.6-1.3-1.3-1.3C308.1,420.9,307.5,421.5,307.5,422.3z M240.8,426L240.8,426 c0,0.6,0.5,1.1,1.1,1.1c0.6,0,1.1-0.5,1.1-1.1c0-0.6-0.5-1.1-1.1-1.1C241.4,424.9,240.8,425.4,240.8,426z M307.5,430.2L307.5,430.2 c0,0.7,0.6,1.3,1.3,1.3c0.7,0,1.3-0.6,1.3-1.3c0-0.7-0.6-1.3-1.3-1.3C308.1,428.9,307.5,429.5,307.5,430.2z M240.8,432.9 L240.8,432.9c0,0.6,0.5,1.1,1.1,1.1c0.6,0,1.1-0.5,1.1-1.1c0-0.6-0.5-1.1-1.1-1.1C241.4,431.8,240.8,432.3,240.8,432.9z M307.5,438.1L307.5,438.1c0,0.7,0.6,1.3,1.3,1.3c0.7,0,1.3-0.6,1.3-1.3c0-0.7-0.6-1.3-1.3-1.3 C308.1,436.8,307.5,437.4,307.5,438.1z M241.3,438.9c-0.3,0.2-0.5,0.6-0.5,0.9c0,0.6,0.5,1.1,1.1,1.1c0.6,0,1.1-0.5,1.1-1.1 c0-0.4-0.2-0.7-0.5-0.9c0.1,0,0.1-0.1,0.2-0.1c0.4-0.4,0.4-1.2,0-1.6L123,317.4l118.1-118.1c0.2,0.2,0.5,0.4,0.9,0.4 c0.6,0,1.1-0.5,1.1-1.1c0-0.3-0.2-0.7-0.4-0.9l0.1-0.1c0.4-0.4,0.4-1.2,0-1.6s-1.2-0.4-1.6,0L120.6,316.6c-0.4,0.4-0.4,1.2,0,1.6 l120.6,120.6C241.2,438.8,241.3,438.9,241.3,438.9z M240.8,446.7L240.8,446.7c0,0.6,0.5,1.1,1.1,1.1c0.6,0,1.1-0.5,1.1-1.1 c0-0.6-0.5-1.1-1.1-1.1C241.4,445.6,240.8,446.1,240.8,446.7z M312.8,447.7c0,2.2-1.8,4-4,4c-2.2,0-4-1.8-4-4c0-2.2,1.8-4,4-4 C311.1,443.7,312.8,445.5,312.8,447.7z M241.4,454.6c-0.4-0.2-0.6-0.6-0.6-1c0-0.6,0.5-1.1,1.1-1.1c0.6,0,1.1,0.5,1.1,1.1 c0,0.4-0.2,0.8-0.6,1c2.9,0.3,5.2,2.7,5.2,5.7c0,3.2-2.6,5.7-5.7,5.7s-5.7-2.6-5.7-5.7C236.3,457.4,238.5,454.9,241.4,454.6z M256.9,19.5c-4.1-0.6-7.3-4.1-7.3-8.4c0-4.7,3.8-8.5,8.5-8.5c4.7,0,8.5,3.8,8.5,8.5c0,4.3-3.2,7.8-7.3,8.4v42.1l89.6,89.6v-29.3 c-1.5-0.5-2.6-2-2.6-3.7c0-2.2,1.8-4,4-4c2.2,0,4,1.8,4,4c0,1.7-1.1,3.2-2.6,3.7v31.9l28,28c0.4,0.4,0.4,1.2,0,1.6l-28,28v174.4 c0,0.7-0.6,1.3-1.3,1.3c-0.7,0-1.3-0.6-1.3-1.3V214l-89.6,89.6v180c3.3,0.5,5.7,3.4,5.7,6.8c0,3.8-3.1,6.9-6.9,6.9 c-3.8,0-6.9-3.1-6.9-6.9c0-3.4,2.5-6.3,5.7-6.8V19.5z" fill-rule="evenodd"/></g></svg>